<svg width="28" height="23" viewBox="0 0 28 23" fill="none" xmlns="http://www.w3.org/2000/svg">
<path d="M17.262 22.3894H16.968C16.3755 22.3306 15.8171 22.0844 15.374 21.6866C14.9309 21.2889 14.6261 20.7602 14.504 20.1774L10.752 2.78938L6.888 11.7494C6.77871 11.9998 6.59852 12.2128 6.36965 12.362C6.14078 12.5113 5.87324 12.5903 5.6 12.5894H1.4C1.0287 12.5894 0.672601 12.4419 0.41005 12.1793C0.1475 11.9168 0 11.5607 0 11.1894C0 10.8181 0.1475 10.462 0.41005 10.1994C0.672601 9.93688 1.0287 9.78938 1.4 9.78938H4.676L8.19 1.68338C8.42655 1.13943 8.82973 0.684647 9.34142 0.384614C9.8531 0.0845805 10.4468 -0.0452044 11.0371 0.0139716C11.6273 0.0731476 12.1834 0.318227 12.6253 0.713874C13.0673 1.10952 13.3722 1.63529 13.496 2.21538L17.248 19.5894L21.112 10.6574C21.217 10.4017 21.3954 10.1829 21.6246 10.0284C21.8538 9.87392 22.1236 9.79076 22.4 9.78938H26.6C26.9713 9.78938 27.3274 9.93688 27.59 10.1994C27.8525 10.462 28 10.8181 28 11.1894C28 11.5607 27.8525 11.9168 27.59 12.1793C27.3274 12.4419 26.9713 12.5894 26.6 12.5894H23.324L19.81 20.6954C19.5954 21.1945 19.2403 21.6204 18.7878 21.9212C18.3354 22.222 17.8053 22.3847 17.262 22.3894Z" fill="white"/>
</svg>
