<svg width="28" height="28" viewBox="0 0 28 28" fill="none" xmlns="http://www.w3.org/2000/svg">
<path fill-rule="evenodd" clip-rule="evenodd" d="M14 9.14602e-06C13.5449 0.000332107 13.0989 0.128467 12.7131 0.36982L1.18551 8.01963L1.1834 8.02386C0.79872 8.26633 0.510611 8.63532 0.36867 9.06732C0.226729 9.49931 0.239836 9.96728 0.405736 10.3907C0.718491 11.1916 1.51306 11.7368 2.47245 11.7368H2.66264V20.0882H2.29706C0.995321 20.0882 0 21.1617 0 22.4127V25.4134C0 26.6645 0.995321 27.7359 2.29706 27.7359H25.7051C27.0047 27.7359 28 26.6645 28 25.4134V22.4127C28 21.1617 27.0047 20.0882 25.7051 20.0882H25.3374V11.7368H25.5275C26.4869 11.7368 27.2815 11.1916 27.5943 10.3928C27.7609 9.96936 27.7746 9.50109 27.6331 9.06866C27.4915 8.63622 27.2035 8.26673 26.8187 8.02386L26.8145 8.02174L15.2891 0.371934L15.2468 0.340236C14.8695 0.116372 14.4387 -0.00119423 14 9.14602e-06ZM21.6414 11.7368H19.0125V20.0882H21.6392L21.6414 11.7368ZM15.3144 11.7368H12.6856V20.0882H15.3144V11.7368ZM8.98747 11.7368H6.36075V20.0882H8.98747V11.7368ZM2.64151 22.7297V25.0944H25.3585V22.7297H2.64151Z" fill="white"/>
</svg>
