<svg width="28" height="22" viewBox="0 0 28 22" fill="none" xmlns="http://www.w3.org/2000/svg">
<path d="M13.0715 2.58611L7.40347 8.88611C7.17986 9.13403 7.18958 9.51806 7.42778 9.75625C8.91042 11.2389 11.3167 11.2389 12.7993 9.75625L14.3451 8.21042C14.5493 8.00625 14.8069 7.89444 15.0694 7.875C15.4 7.84583 15.7403 7.95764 15.9931 8.21042L24.5778 16.7222L28 14V0L22.5556 3.11111L21.3986 2.33819C20.631 1.82762 19.7296 1.55533 18.8076 1.55556H15.3854C15.3319 1.55556 15.2736 1.55556 15.2201 1.56042C14.3986 1.60417 13.6257 1.97361 13.0715 2.58611ZM5.66806 7.32569L10.8597 1.55556H8.93472C7.69514 1.55556 6.50903 2.04653 5.63403 2.92153L5.44444 3.11111L0 0V14L7.60278 20.334C8.72083 21.2674 10.1306 21.7778 11.584 21.7778H12.3472L12.0069 21.4375C11.55 20.9806 11.55 20.2417 12.0069 19.7896C12.4639 19.3375 13.2028 19.3326 13.6549 19.7896L15.6479 21.7826H16.0854C17.0139 21.7826 17.9229 21.5736 18.7493 21.1847L17.4514 19.8819C16.9944 19.425 16.9944 18.6861 17.4514 18.234C17.9083 17.7819 18.6472 17.7771 19.0993 18.234L20.6549 19.7896L21.5056 18.9389C21.9382 18.5063 22.0646 17.8792 21.875 17.3299L15.1715 10.6799L14.4472 11.4042C12.0507 13.8007 8.17153 13.8007 5.775 11.4042C4.65694 10.2861 4.61319 8.49236 5.66806 7.32083V7.32569Z" fill="white"/>
</svg>
